<svg width="24" height="24" viewBox="0 0 24 24" fill="none" xmlns="http://www.w3.org/2000/svg"><g clip-path="url(#clip0_1431_3530)"><path fill-rule="evenodd" clip-rule="evenodd" d="M23.4 12.067C23.4 5.734 18.296.6 12 .6S.6 5.734.6 12.067c0 5.724 4.168 10.468 9.618 11.328v-8.013H7.324v-3.315h2.894V9.541c0-2.874 1.702-4.462 4.306-4.462 1.248 0 2.552.224 2.552.224v2.822H15.64c-1.416 0-1.858.884-1.858 1.791v2.151h3.162l-.506 3.315h-2.656v8.013c5.45-.86 9.619-5.604 9.619-11.328z" fill="#1877F2"/></g><defs><clipPath id="clip0_1431_3530"><path fill="#fff" transform="translate(.6 .6)" d="M0 0h22.8v22.8H0z"/></clipPath></defs></svg>