<svg width="24" height="24" viewBox="0 0 24 24" xmlns="http://www.w3.org/2000/svg"><path fill-rule="evenodd" clip-rule="evenodd" d="M20.208 12.194a9.82 9.82 0 00-.155-1.749H12v3.308h4.602a3.933 3.933 0 01-1.707 2.58v2.146h2.764c1.616-1.489 2.549-3.68 2.549-6.285z" fill="#4285F4"/><path fill-rule="evenodd" clip-rule="evenodd" d="M12 20.55c2.309 0 4.244-.766 5.659-2.071l-2.764-2.146c-.765.513-1.745.816-2.895.816-2.227 0-4.112-1.504-4.784-3.525H4.359v2.216A8.547 8.547 0 0012 20.55z" fill="#34A853"/><path fill-rule="evenodd" clip-rule="evenodd" d="M7.215 13.624A5.14 5.14 0 016.947 12c0-.563.097-1.111.268-1.624V8.16H4.36A8.546 8.546 0 003.45 12c0 1.38.33 2.685.91 3.84l2.856-2.216z" fill="#FBBC05"/><path fill-rule="evenodd" clip-rule="evenodd" d="M12 6.85c1.255 0 2.382.432 3.268 1.28l2.453-2.453C16.24 4.297 14.305 3.45 12 3.45a8.547 8.547 0 00-7.64 4.71l2.856 2.216C7.888 8.355 9.773 6.85 12 6.85z" fill="#EA4335"/></svg>