<svg width="65" height="42" viewBox="0 0 65 42" xmlns="http://www.w3.org/2000/svg"><path d="M59.179 0H5.821l-.667.001c-.187.002-.374.004-.561.009A8.09 8.09 0 003.37.118a4.12 4.12 0 00-1.162.387A3.902 3.902 0 00.5 2.229c-.19.375-.31.76-.383 1.173A8.257 8.257 0 00.01 4.636a28.12 28.12 0 00-.008.566v31.596c.001.189.003.378.008.567.011.41.036.826.108 1.233.074.413.194.798.383 1.173a3.922 3.922 0 001.708 1.724c.372.191.753.313 1.162.387a8.16 8.16 0 001.223.109A74.15 74.15 0 005.822 42H59.18c.222 0 .444 0 .666-.002.187 0 .374-.003.562-.007a8.183 8.183 0 001.223-.109 4.09 4.09 0 001.161-.387c.366-.187.7-.432.99-.725.29-.293.532-.63.719-1 .19-.374.31-.759.382-1.172.073-.407.097-.822.108-1.233.005-.19.007-.378.008-.567.002-.225.002-.449.002-.673V5.875c0-.224 0-.448-.002-.673 0-.188-.003-.377-.008-.566a8.257 8.257 0 00-.108-1.234A4.151 4.151 0 0064.5 2.23 3.905 3.905 0 0062.792.505 4.104 4.104 0 0061.63.118 8.111 8.111 0 0060.407.01a27.79 27.79 0 00-.562-.01h-.665z"/><path d="M59.179 1.4l.656.001c.178.001.356.003.535.008.31.009.674.026 1.014.087.294.054.541.135.779.257a2.51 2.51 0 011.1 1.113c.121.237.201.486.254.785.06.339.077.707.086 1.023.005.178.007.356.008.539.002.22.002.441.002.663v30.249c0 .22 0 .441-.002.666 0 .179-.003.357-.008.536a7.013 7.013 0 01-.087 1.026 2.733 2.733 0 01-.253.782 2.536 2.536 0 01-1.102 1.113 2.698 2.698 0 01-.775.256 6.99 6.99 0 01-1.01.087c-.18.004-.359.006-.542.007-.218.002-.437.002-.655.002H5.812c-.216 0-.432 0-.652-.002-.179 0-.357-.003-.53-.007a7.016 7.016 0 01-1.015-.087 2.71 2.71 0 01-.78-.258 2.518 2.518 0 01-1.1-1.11c-.12-.24-.2-.488-.253-.788a6.989 6.989 0 01-.086-1.021 26.37 26.37 0 01-.008-.537l-.001-.526V5.21c.002-.179.004-.358.009-.538.008-.313.025-.68.086-1.025.053-.296.133-.545.254-.785a2.525 2.525 0 011.101-1.11c.236-.122.484-.203.778-.257.34-.061.703-.078 1.015-.087.178-.005.356-.007.532-.008l.659-.001h53.358z" fill="#fff"/><path d="M17.744 14.126c.557-.702.934-1.646.835-2.61-.815.041-1.809.543-2.385 1.246-.516.602-.974 1.585-.855 2.509.915.08 1.829-.462 2.405-1.145zm.823 1.324c-1.328-.079-2.457.762-3.092.762-.634 0-1.605-.72-2.656-.701-1.367.02-2.636.8-3.33 2.041-1.427 2.483-.376 6.165 1.011 8.187.674 1 1.486 2.102 2.557 2.063 1.01-.04 1.407-.661 2.636-.661s1.586.66 2.656.64c1.11-.02 1.804-1 2.478-2.002.773-1.14 1.09-2.241 1.11-2.302-.02-.02-2.141-.84-2.16-3.303-.02-2.061 1.664-3.042 1.743-3.102-.95-1.42-2.438-1.58-2.953-1.621zm11.565-2.789c2.887 0 4.897 2.008 4.897 4.932 0 2.935-2.051 4.954-4.969 4.954h-3.196v5.13h-2.31V12.661h5.578zm-3.268 7.93h2.65c2.01 0 3.154-1.093 3.154-2.987 0-1.894-1.144-2.976-3.144-2.976h-2.66v5.962zm8.769 3.975c0-1.915 1.453-3.091 4.031-3.237l2.97-.177v-.842c0-1.218-.815-1.946-2.176-1.946-1.289 0-2.093.624-2.289 1.602h-2.103c.124-1.977 1.794-3.434 4.474-3.434 2.63 0 4.31 1.405 4.31 3.6v7.545h-2.134v-1.8h-.052c-.629 1.217-2 1.987-3.423 1.987-2.123 0-3.608-1.332-3.608-3.298zm7-.989v-.864l-2.67.167c-1.33.094-2.083.687-2.083 1.623 0 .957.784 1.582 1.98 1.582 1.557 0 2.773-1.082 2.773-2.508zm4.232 8.127v-1.82c.165.04.536.04.722.04 1.03 0 1.587-.436 1.927-1.56 0-.02.197-.666.197-.677L45.793 16.73h2.412l2.743 8.908h.04l2.744-8.908h2.35L52.02 28.25c-.928 2.653-2 3.506-4.248 3.506-.185 0-.742-.02-.907-.052z"/></svg>