<svg width="65" height="42" viewBox="0 0 65 42" xmlns="http://www.w3.org/2000/svg"><rect x=".625" y=".625" width="63.75" height="40.75" rx="3.375" stroke="#000" stroke-width="1.25"/><g clip-path="url(#clip0_3877_21737)" fill="#3E4348"><path fill-rule="evenodd" clip-rule="evenodd" d="M11.005 15h7.99A2.005 2.005 0 0121 17.005v7.99A2.006 2.006 0 0118.995 27h-7.99A2.006 2.006 0 019 24.994v-7.989C9 15.898 9.898 15 11.005 15zm7.182 9.819c.35 0 .633-.284.633-.633l-.002-6.371a.633.633 0 00-.632-.633h-6.37a.633.633 0 00-.633.634v6.37c0 .35.283.633.633.633h6.371z"/><path d="M13.728 22.627a.363.363 0 01-.36-.363V19.72a.363.363 0 01.362-.366h2.547a.364.364 0 01.363.366v2.542a.364.364 0 01-.363.365l-2.55-.001zm13.379-2.162c-.371-.101-.723-.197-.996-.318-.505-.226-.74-.54-.74-.985 0-.843.815-1.223 1.626-1.223.772 0 1.445.319 1.898.898l.03.04.653-.51-.032-.04c-.601-.765-1.492-1.185-2.51-1.185-.676 0-1.297.183-1.746.516-.505.37-.772.906-.772 1.546 0 1.487 1.401 1.85 2.527 2.142 1.14.3 1.837.528 1.837 1.397 0 .855-.691 1.408-1.761 1.408-.53 0-1.51-.14-2.125-1.081l-.029-.045-.686.497.027.04c.582.881 1.587 1.387 2.76 1.387 1.594 0 2.665-.9 2.665-2.237 0-1.531-1.457-1.928-2.626-2.247z"/><path fill-rule="evenodd" clip-rule="evenodd" d="M34.93 20.156v-.805h.766v7.648h-.767V24.01c-.438.6-1.094.928-1.866.928-1.458 0-2.477-1.167-2.477-2.852 0-1.686 1.021-2.863 2.477-2.863.767 0 1.423.33 1.866.932zm-3.536 1.921c0 1.56.894 2.117 1.73 2.117h.002c1.095 0 1.803-.838 1.803-2.117 0-1.278-.709-2.105-1.805-2.105-1.275 0-1.73 1.088-1.73 2.105z"/><path d="M40.769 19.35v3.02c0 1.056-.724 1.824-1.72 1.824-.828 0-1.231-.492-1.231-1.502v-3.341h-.767v3.498c0 1.31.712 2.092 1.904 2.092.743 0 1.381-.315 1.814-.891v.766h.767v-5.465h-.767z"/><path fill-rule="evenodd" clip-rule="evenodd" d="M42.976 19.925c.565-.444 1.333-.699 2.104-.699 1.219 0 1.946.606 1.943 1.623v3.968h-.767v-.606c-.387.485-.947.73-1.668.73-1.174 0-1.904-.641-1.904-1.674 0-1.343 1.265-1.554 1.805-1.644l.269-.042h.003c.737-.114 1.497-.231 1.497-.856 0-.708-.918-.762-1.199-.762-.497 0-1.198.147-1.675.56l-.044.038-.4-.608.036-.028zm.508 3.299c0 .875.825.97 1.18.97.77 0 1.596-.41 1.594-1.566v-.79c-.374.236-.907.328-1.381.41l-.008.002-.239.042c-.76.141-1.146.323-1.146.932z"/><path d="M51.468 19.454c-.182-.13-.47-.207-.768-.207a1.959 1.959 0 00-1.554.8v-.698h-.767v5.464h.767v-2.922c0-1.296.728-1.877 1.45-1.877.21-.003.42.041.611.13l.052.027.243-.695-.034-.022z"/><path fill-rule="evenodd" clip-rule="evenodd" d="M51.695 22.098c0-1.69 1.055-2.872 2.562-2.872 1.452 0 2.467 1.049 2.464 2.553 0 .13-.008.261-.022.39l-.004.046h-4.192c.019 1.203.743 1.98 1.855 1.98.637 0 1.189-.26 1.554-.73l.033-.044.555.495-.03.037c-.37.45-1.043.987-2.155.987-1.566 0-2.62-1.142-2.62-2.842zm2.541-2.136c-.937 0-1.601.617-1.705 1.577h3.38c-.067-.772-.538-1.577-1.675-1.577z"/></g><defs><clipPath id="clip0_3877_21737"><path fill="#fff" transform="translate(9 15)" d="M0 0h48v12H0z"/></clipPath></defs></svg>