<svg width="65" height="42" viewBox="0 0 65 42" xmlns="http://www.w3.org/2000/svg"><path d="M32.378 19.389c0 .683-.282 1.233-.848 1.651-.566.419-1.357.627-2.371.627h-.563l-.432 1.865H26.68l1.323-5.731h2.06c.375 0 .7.027.978.077.279.05.52.14.721.264.194.12.352.289.459.49.104.207.157.458.157.757zm-1.578.144c0-.225-.08-.389-.245-.5-.164-.111-.402-.16-.72-.16h-.597l-.395 1.714h.533c.449 0 .8-.09 1.048-.275.252-.184.375-.446.375-.783v.004zm4.308 3.544l-.315.208c-.124.08-.237.145-.342.191-.13.056-.266.101-.405.134-.128.03-.302.047-.523.047-.358 0-.653-.1-.88-.301a1.008 1.008 0 01-.342-.792c0-.341.08-.625.242-.867.16-.243.402-.43.72-.57a4.032 4.032 0 011.063-.292l1.337-.13.016-.074a.417.417 0 00.014-.117.387.387 0 00-.25-.382c-.167-.074-.422-.11-.758-.11-.227 0-.479.036-.757.113l-.62.191h-.127l.209-1.025c.16-.04.416-.083.75-.137a6.345 6.345 0 011.011-.077c.677 0 1.176.083 1.491.264.319.178.476.452.476.824 0 .068-.005.135-.013.201-.007.073-.02.144-.037.215l-.677 2.941h-1.376l.093-.455zm.368-1.581l-.696.074a2.616 2.616 0 00-.553.123.798.798 0 00-.359.238.629.629 0 00-.123.408c0 .148.054.25.164.315.11.065.268.09.479.09.138 0 .281-.03.439-.093a2.13 2.13 0 00.439-.242l.21-.913zm3.766 3.625h-1.525l1.102-1.672-.71-4.234h1.417l.375 2.83 1.644-2.83h1.464l-3.767 5.906z" fill="#123984"/><path d="M48.55 19.389c0 .683-.282 1.233-.848 1.651-.567.419-1.357.627-2.372.627h-.562l-.432 1.865h-1.484l1.32-5.728h2.06c.375 0 .7.027.978.077s.52.141.72.265c.194.12.353.288.46.489.107.208.16.455.16.75v.004zm-1.582.144c0-.225-.08-.389-.245-.5-.164-.111-.402-.161-.72-.161h-.596l-.396 1.715h.532c.449 0 .8-.09 1.049-.275.25-.184.375-.446.375-.783v.004zm4.311 3.544l-.315.208c-.123.08-.237.145-.341.191a2.57 2.57 0 01-.406.134c-.127.03-.301.047-.522.047-.358 0-.653-.1-.88-.301a1.008 1.008 0 01-.343-.792c0-.342.08-.625.242-.867.161-.243.402-.43.72-.57a4.03 4.03 0 011.063-.292l1.337-.13.017-.074a.417.417 0 00.013-.117.388.388 0 00-.25-.382c-.167-.074-.422-.11-.757-.11-.228 0-.48.036-.757.113l-.62.191h-.127l.208-1.025c.161-.04.417-.083.75-.137a6.357 6.357 0 011.012-.078c.676 0 1.176.084 1.49.265.319.178.476.452.476.824 0 .067-.005.134-.013.201-.007.072-.02.144-.037.215l-.676 2.941h-1.38l.096-.455zm.369-1.581l-.697.074a2.606 2.606 0 00-.553.123.797.797 0 00-.358.238.628.628 0 00-.124.408c0 .148.054.25.164.315.11.065.268.09.48.09.137 0 .28-.03.438-.093.156-.063.303-.144.439-.242l.21-.913zm4.948-3.95l-1.384 5.99H53.82l1.383-5.99h1.394z" fill="#009DE2"/><path d="M24.794 18.203c0 1.631-.678 2.948-2.03 3.948-1.354 1-3.244 1.5-5.675 1.5h-1.344l-1.03 4.464h-3.55l3.278-13.701h4.808c.896 0 1.675.063 2.345.185.665.122 1.242.334 1.726.636.477.302.845.693 1.096 1.174.25.478.376 1.078.376 1.794z" fill="#009CDE"/><path d="M14.836 28.262H10.98l3.351-13.998h4.922c.899 0 1.696.063 2.368.186.68.125 1.278.346 1.777.654.498.313.887.728 1.15 1.23.262.502.394 1.129.394 1.866 0 1.673-.702 3.044-2.09 4.068-1.374 1.015-3.313 1.529-5.764 1.529H15.86l-1.024 4.465zm-3.482-.293H14.6l1.03-4.465h1.46c2.387 0 4.268-.495 5.588-1.472.654-.484 1.153-1.051 1.478-1.684.326-.633.49-1.356.49-2.145 0-.69-.122-1.272-.361-1.732a2.897 2.897 0 00-1.043-1.117c-.465-.29-1.03-.495-1.675-.615-.654-.12-1.433-.182-2.317-.182h-4.69L11.354 27.97z" fill="#fff"/><path d="M23.216 16.677c0 1.63-.678 2.948-2.031 3.948-1.353 1-3.243 1.5-5.674 1.5h-1.344l-1.03 4.464H9.586l3.162-13.704h4.925c.896 0 1.675.062 2.344.185.666.122 1.243.334 1.727.636.477.302.845.693 1.096 1.174.25.477.376 1.078.376 1.797z" fill="#0F3572"/><path d="M13.255 26.735H9.402l3.229-13.997h5.044c.898 0 1.696.063 2.368.186.68.125 1.278.346 1.777.654.498.313.887.728 1.15 1.23.262.502.394 1.129.394 1.866 0 1.673-.702 3.044-2.09 4.068-1.375 1.015-3.313 1.529-5.765 1.529h-1.227l-1.027 4.464zm-3.482-.295h3.249l1.03-4.465h1.46c2.387 0 4.268-.495 5.588-1.472.654-.484 1.153-1.051 1.478-1.684.326-.633.49-1.356.49-2.145 0-.69-.122-1.272-.361-1.732a2.897 2.897 0 00-1.043-1.117c-.466-.29-1.03-.495-1.675-.615-.654-.12-1.433-.182-2.317-.182h-4.808L9.773 26.44zm9.795-9.276c-.027.418-.11.726-.367 1.081-.254.356-.553.585-.953.777a2.592 2.592 0 01-.756.224 7.053 7.053 0 01-.943.056h-1.765l.988-3.541h1.604c.41 0 .738.006.985.062.248.054.451.129.604.221.212.126.382.278.48.472.123.227.138.373.123.648z" fill="#fff"/><rect x=".625" y=".625" width="63.75" height="40.75" rx="3.375" stroke="#000" stroke-width="1.25"/></svg>