<svg width="65" height="42" viewBox="0 0 65 42" xmlns="http://www.w3.org/2000/svg"><rect x=".625" y=".625" width="63.75" height="40.75" rx="3.375" stroke="#000" stroke-width="1.25"/><g clip-path="url(#clip0_811_15870)"><path d="M31.012 20.748v6.449H28.98V11.27h5.387a4.84 4.84 0 013.489 1.378 4.461 4.461 0 011.457 3.361 4.44 4.44 0 01-1.457 3.38c-.942.905-2.105 1.357-3.489 1.357h-3.355zm0-7.517v5.56h3.406a2.667 2.667 0 002.01-.823 2.715 2.715 0 00.816-1.947 2.732 2.732 0 00-.817-1.946 2.648 2.648 0 00-2.01-.845h-3.405v.002zm12.983 2.713c1.5 0 2.686.405 3.555 1.213.869.808 1.302 1.916 1.302 3.324v6.716h-1.943v-1.512h-.088c-.841 1.245-1.96 1.867-3.356 1.867-1.192 0-2.189-.355-2.991-1.067a3.406 3.406 0 01-1.204-2.668c0-1.128.423-2.025 1.27-2.69.845-.666 1.975-1 3.388-1.002 1.206 0 2.2.222 2.98.667v-.467a2.344 2.344 0 00-.84-1.811 2.865 2.865 0 00-1.96-.746c-1.134 0-2.032.482-2.693 1.446l-1.79-1.135c.985-1.423 2.441-2.135 4.37-2.135zm-2.628 7.917a1.644 1.644 0 00.674 1.334 2.463 2.463 0 001.578.534 3.227 3.227 0 002.284-.956c.673-.637 1.01-1.386 1.01-2.245-.634-.508-1.517-.762-2.65-.762-.825 0-1.513.2-2.064.6-.556.407-.832.902-.832 1.495zM60.005 16.3L53.223 32h-2.097l2.517-5.493-4.46-10.207h2.208l3.224 7.828h.044l3.135-7.828h2.211z" fill="#5F6368"/><path d="M22.804 19.358a10.928 10.928 0 00-.156-1.86h-8.566v3.523h4.906a4.22 4.22 0 01-1.814 2.78v2.288h2.928c1.715-1.593 2.702-3.947 2.702-6.731z" fill="#4285F4"/><path d="M14.084 28.298c2.451 0 4.515-.81 6.02-2.208l-2.928-2.288c-.815.557-1.864.875-3.092.875-2.369 0-4.38-1.609-5.099-3.777H5.97v2.357a9.125 9.125 0 003.348 3.68 9.034 9.034 0 004.767 1.361z" fill="#34A853"/><path d="M8.984 20.9a5.52 5.52 0 010-3.502v-2.357H5.967a9.203 9.203 0 000 8.216L8.984 20.9z" fill="#FBBC04"/><path d="M14.084 13.621a4.912 4.912 0 013.485 1.373l2.592-2.611A8.693 8.693 0 0014.084 10a9.034 9.034 0 00-4.767 1.362A9.125 9.125 0 005.97 15.04l3.016 2.357c.72-2.168 2.73-3.777 5.1-3.777z" fill="#EA4335"/></g><defs><clipPath id="clip0_811_15870"><path fill="#fff" transform="translate(5 10)" d="M0 0h55v22H0z"/></clipPath></defs></svg>