<svg width="20" height="20" viewBox="0 0 20 20" xmlns="http://www.w3.org/2000/svg"><path fill-rule="evenodd" clip-rule="evenodd" d="M1.6 10a8.4 8.4 0 1016.8 0 8.4 8.4 0 00-16.8 0zm6.817-3.6H9.6V5.2a.4.4 0 11.8 0v1.2h2a.4.4 0 010 .8H8.417a.4.4 0 00-.4.4v1.6a.4.4 0 00.4.4H11.6a1.2 1.2 0 011.2 1.2v1.602a1.2 1.2 0 01-1.2 1.2h-1.2V14.8a.4.4 0 01-.8 0v-1.198h-2a.4.4 0 010-.8h2.365a.412.412 0 01.07 0H11.6a.4.4 0 00.4-.4V10.8a.4.4 0 00-.4-.4H8.417a1.2 1.2 0 01-1.2-1.2V7.6a1.2 1.2 0 011.2-1.2z" fill="#CCC"/></svg>